{
    "asset" : {
        "generator" : "Khronos glTF Blender I/O v3.2.43",
        "version" : "2.0"
    },
    "scene" : 0,
    "scenes" : [
        {
            "name" : "Scene",
            "nodes" : [
                0
            ]
        }
    ],
    "nodes" : [
        {
            "mesh" : 0,
            "name" : "Cube",
            "scale" : [
                0.4304722547531128,
                1,
                0.4304722547531128
            ],
            "translation" : [
                -5,
                1,
                2
            ]
        }
    ],
    "materials" : [
        {
            "doubleSided" : true,
            "name" : "Wall",
            "pbrMetallicRoughness" : {
                "baseColorTexture" : {
                    "index" : 0
                },
                "metallicFactor" : 0,
                "roughnessFactor" : 0.5
            }
        },
        {
            "doubleSided" : true,
            "name" : "Floor",
            "pbrMetallicRoughness" : {
                "baseColorTexture" : {
                    "index" : 1
                },
                "metallicFactor" : 0,
                "roughnessFactor" : 0.5
            }
        },
        {
            "doubleSided" : true,
            "name" : "Ceiling",
            "pbrMetallicRoughness" : {
                "baseColorTexture" : {
                    "index" : 2
                },
                "metallicFactor" : 0,
                "roughnessFactor" : 0.5
            }
        },
        {
            "doubleSided" : true,
            "name" : "Cabinet",
            "pbrMetallicRoughness" : {
                "baseColorTexture" : {
                    "index" : 3
                },
                "metallicFactor" : 0,
                "roughnessFactor" : 0.5
            }
        },
        {
            "doubleSided" : true,
            "name" : "Counter",
            "pbrMetallicRoughness" : {
                "baseColorTexture" : {
                    "index" : 4
                },
                "metallicFactor" : 0,
                "roughnessFactor" : 0.5
            }
        },
        {
            "doubleSided" : true,
            "name" : "CounterTop",
            "pbrMetallicRoughness" : {
                "baseColorTexture" : {
                    "index" : 5
                },
                "metallicFactor" : 0,
                "roughnessFactor" : 0.5
            }
        },
        {
            "doubleSided" : true,
            "name" : "CounterSide",
            "pbrMetallicRoughness" : {
                "baseColorTexture" : {
                    "index" : 6
                },
                "metallicFactor" : 0,
                "roughnessFactor" : 0.5
            }
        }
    ],
    "meshes" : [
        {
            "name" : "Cube",
            "primitives" : [
                {
                    "attributes" : {
                        "POSITION" : 0,
                        "NORMAL" : 1,
                        "TEXCOORD_0" : 2
                    },
                    "indices" : 3,
                    "material" : 0
                },
                {
                    "attributes" : {
                        "POSITION" : 4,
                        "NORMAL" : 5,
                        "TEXCOORD_0" : 6
                    },
                    "indices" : 7,
                    "material" : 1
                },
                {
                    "attributes" : {
                        "POSITION" : 8,
                        "NORMAL" : 9,
                        "TEXCOORD_0" : 10
                    },
                    "indices" : 11,
                    "material" : 2
                },
                {
                    "attributes" : {
                        "POSITION" : 12,
                        "NORMAL" : 13,
                        "TEXCOORD_0" : 14
                    },
                    "indices" : 15,
                    "material" : 3
                },
                {
                    "attributes" : {
                        "POSITION" : 16,
                        "NORMAL" : 17,
                        "TEXCOORD_0" : 18
                    },
                    "indices" : 19,
                    "material" : 4
                },
                {
                    "attributes" : {
                        "POSITION" : 20,
                        "NORMAL" : 21,
                        "TEXCOORD_0" : 22
                    },
                    "indices" : 23,
                    "material" : 5
                },
                {
                    "attributes" : {
                        "POSITION" : 24,
                        "NORMAL" : 25,
                        "TEXCOORD_0" : 26
                    },
                    "indices" : 27,
                    "material" : 6
                }
            ]
        }
    ],
    "textures" : [
        {
            "sampler" : 0,
            "source" : 0
        },
        {
            "sampler" : 0,
            "source" : 1
        },
        {
            "sampler" : 0,
            "source" : 2
        },
        {
            "sampler" : 0,
            "source" : 3
        },
        {
            "sampler" : 0,
            "source" : 4
        },
        {
            "sampler" : 0,
            "source" : 5
        },
        {
            "sampler" : 0,
            "source" : 6
        }
    ],
    "images" : [
        {
            "bufferView" : 4,
            "mimeType" : "image/jpeg",
            "name" : "wallbrick"
        },
        {
            "bufferView" : 9,
            "mimeType" : "image/jpeg",
            "name" : "wooden_floor"
        },
        {
            "bufferView" : 14,
            "mimeType" : "image/jpeg",
            "name" : "ceilingstone"
        },
        {
            "bufferView" : 19,
            "mimeType" : "image/png",
            "name" : "cabinet"
        },
        {
            "bufferView" : 24,
            "mimeType" : "image/png",
            "name" : "cabinetdoors"
        },
        {
            "bufferView" : 29,
            "mimeType" : "image/png",
            "name" : "cabinetcountertop"
        },
        {
            "bufferView" : 34,
            "mimeType" : "image/png",
            "name" : "cabinetside"
        }
    ],
    "accessors" : [
        {
            "bufferView" : 0,
            "componentType" : 5126,
            "count" : 98,
            "max" : [
                10.685938835144043,
                5.099999904632568,
                8.609027862548828
            ],
            "min" : [
                -22.869218826293945,
                -1,
                -25.553333282470703
            ],
            "type" : "VEC3"
        },
        {
            "bufferView" : 1,
            "componentType" : 5126,
            "count" : 98,
            "type" : "VEC3"
        },
        {
            "bufferView" : 2,
            "componentType" : 5126,
            "count" : 98,
            "type" : "VEC2"
        },
        {
            "bufferView" : 3,
            "componentType" : 5123,
            "count" : 162,
            "type" : "SCALAR"
        },
        {
            "bufferView" : 5,
            "componentType" : 5126,
            "count" : 10,
            "max" : [
                11.615151405334473,
                -1,
                4.646060466766357
            ],
            "min" : [
                -18.584239959716797,
                -1,
                -25.553333282470703
            ],
            "type" : "VEC3"
        },
        {
            "bufferView" : 6,
            "componentType" : 5126,
            "count" : 10,
            "type" : "VEC3"
        },
        {
            "bufferView" : 7,
            "componentType" : 5126,
            "count" : 10,
            "type" : "VEC2"
        },
        {
            "bufferView" : 8,
            "componentType" : 5123,
            "count" : 24,
            "type" : "SCALAR"
        },
        {
            "bufferView" : 10,
            "componentType" : 5126,
            "count" : 12,
            "max" : [
                10.685938835144043,
                5,
                6.969090938568115
            ],
            "min" : [
                -20.907272338867188,
                5,
                -25.553333282470703
            ],
            "type" : "VEC3"
        },
        {
            "bufferView" : 11,
            "componentType" : 5126,
            "count" : 12,
            "type" : "VEC3"
        },
        {
            "bufferView" : 12,
            "componentType" : 5126,
            "count" : 12,
            "type" : "VEC2"
        },
        {
            "bufferView" : 13,
            "componentType" : 5123,
            "count" : 24,
            "type" : "SCALAR"
        },
        {
            "bufferView" : 15,
            "componentType" : 5126,
            "count" : 8,
            "max" : [
                10.059818267822266,
                4.800000190734863,
                5.969090938568115
            ],
            "min" : [
                -19.58424186706543,
                3.4000000953674316,
                -24.230300903320312
            ],
            "type" : "VEC3"
        },
        {
            "bufferView" : 16,
            "componentType" : 5126,
            "count" : 8,
            "type" : "VEC3"
        },
        {
            "bufferView" : 17,
            "componentType" : 5126,
            "count" : 8,
            "type" : "VEC2"
        },
        {
            "bufferView" : 18,
            "componentType" : 5123,
            "count" : 12,
            "type" : "SCALAR"
        },
        {
            "bufferView" : 20,
            "componentType" : 5126,
            "count" : 71,
            "max" : [
                10.685938835144043,
                5.099999904632568,
                8.609027862548828
            ],
            "min" : [
                -22.869218826293945,
                -1,
                -25.553333282470703
            ],
            "type" : "VEC3"
        },
        {
            "bufferView" : 21,
            "componentType" : 5126,
            "count" : 71,
            "type" : "VEC3"
        },
        {
            "bufferView" : 22,
            "componentType" : 5126,
            "count" : 71,
            "type" : "VEC2"
        },
        {
            "bufferView" : 23,
            "componentType" : 5123,
            "count" : 126,
            "type" : "SCALAR"
        },
        {
            "bufferView" : 25,
            "componentType" : 5126,
            "count" : 22,
            "max" : [
                10.685938835144043,
                0.20000004768371582,
                6.969090938568115
            ],
            "min" : [
                -20.907272338867188,
                0.20000003278255463,
                -25.553333282470703
            ],
            "type" : "VEC3"
        },
        {
            "bufferView" : 26,
            "componentType" : 5126,
            "count" : 22,
            "type" : "VEC3"
        },
        {
            "bufferView" : 27,
            "componentType" : 5126,
            "count" : 22,
            "type" : "VEC2"
        },
        {
            "bufferView" : 28,
            "componentType" : 5123,
            "count" : 36,
            "type" : "SCALAR"
        },
        {
            "bufferView" : 30,
            "componentType" : 5126,
            "count" : 14,
            "max" : [
                5.41375732421875,
                0.20000003278255463,
                -1.3230302333831787
            ],
            "min" : [
                -13.312060356140137,
                -1,
                -10.292120933532715
            ],
            "type" : "VEC3"
        },
        {
            "bufferView" : 31,
            "componentType" : 5126,
            "count" : 14,
            "type" : "VEC3"
        },
        {
            "bufferView" : 32,
            "componentType" : 5126,
            "count" : 14,
            "type" : "VEC2"
        },
        {
            "bufferView" : 33,
            "componentType" : 5123,
            "count" : 24,
            "type" : "SCALAR"
        }
    ],
    "bufferViews" : [
        {
            "buffer" : 0,
            "byteLength" : 1176,
            "byteOffset" : 0
        },
        {
            "buffer" : 0,
            "byteLength" : 1176,
            "byteOffset" : 1176
        },
        {
            "buffer" : 0,
            "byteLength" : 784,
            "byteOffset" : 2352
        },
        {
            "buffer" : 0,
            "byteLength" : 324,
            "byteOffset" : 3136
        },
        {
            "buffer" : 0,
            "byteLength" : 53508,
            "byteOffset" : 3460
        },
        {
            "buffer" : 0,
            "byteLength" : 120,
            "byteOffset" : 56968
        },
        {
            "buffer" : 0,
            "byteLength" : 120,
            "byteOffset" : 57088
        },
        {
            "buffer" : 0,
            "byteLength" : 80,
            "byteOffset" : 57208
        },
        {
            "buffer" : 0,
            "byteLength" : 48,
            "byteOffset" : 57288
        },
        {
            "buffer" : 0,
            "byteLength" : 99173,
            "byteOffset" : 57336
        },
        {
            "buffer" : 0,
            "byteLength" : 144,
            "byteOffset" : 156512
        },
        {
            "buffer" : 0,
            "byteLength" : 144,
            "byteOffset" : 156656
        },
        {
            "buffer" : 0,
            "byteLength" : 96,
            "byteOffset" : 156800
        },
        {
            "buffer" : 0,
            "byteLength" : 48,
            "byteOffset" : 156896
        },
        {
            "buffer" : 0,
            "byteLength" : 37880,
            "byteOffset" : 156944
        },
        {
            "buffer" : 0,
            "byteLength" : 96,
            "byteOffset" : 194824
        },
        {
            "buffer" : 0,
            "byteLength" : 96,
            "byteOffset" : 194920
        },
        {
            "buffer" : 0,
            "byteLength" : 64,
            "byteOffset" : 195016
        },
        {
            "buffer" : 0,
            "byteLength" : 24,
            "byteOffset" : 195080
        },
        {
            "buffer" : 0,
            "byteLength" : 27093,
            "byteOffset" : 195104
        },
        {
            "buffer" : 0,
            "byteLength" : 852,
            "byteOffset" : 222200
        },
        {
            "buffer" : 0,
            "byteLength" : 852,
            "byteOffset" : 223052
        },
        {
            "buffer" : 0,
            "byteLength" : 568,
            "byteOffset" : 223904
        },
        {
            "buffer" : 0,
            "byteLength" : 252,
            "byteOffset" : 224472
        },
        {
            "buffer" : 0,
            "byteLength" : 26540,
            "byteOffset" : 224724
        },
        {
            "buffer" : 0,
            "byteLength" : 264,
            "byteOffset" : 251264
        },
        {
            "buffer" : 0,
            "byteLength" : 264,
            "byteOffset" : 251528
        },
        {
            "buffer" : 0,
            "byteLength" : 176,
            "byteOffset" : 251792
        },
        {
            "buffer" : 0,
            "byteLength" : 72,
            "byteOffset" : 251968
        },
        {
            "buffer" : 0,
            "byteLength" : 13884,
            "byteOffset" : 252040
        },
        {
            "buffer" : 0,
            "byteLength" : 168,
            "byteOffset" : 265924
        },
        {
            "buffer" : 0,
            "byteLength" : 168,
            "byteOffset" : 266092
        },
        {
            "buffer" : 0,
            "byteLength" : 112,
            "byteOffset" : 266260
        },
        {
            "buffer" : 0,
            "byteLength" : 48,
            "byteOffset" : 266372
        },
        {
            "buffer" : 0,
            "byteLength" : 26402,
            "byteOffset" : 266420
        }
    ],
    "samplers" : [
        {
            "magFilter" : 9729,
            "minFilter" : 9987
        }
    ],
    "buffers" : [
        {
            "byteLength" : 292824,
            "uri" : "data:application/octet-stream;base64,"
        }
    ]
}
